<svg width="18" height="18" viewBox="0 0 18 18" fill="none" xmlns="http://www.w3.org/2000/svg">
<path fill-rule="evenodd" clip-rule="evenodd" d="M7.03125 1.5C7.34191 1.5 7.59375 1.75184 7.59375 2.0625V2.625H10.5V2.0625C10.5 1.75184 10.7518 1.5 11.0625 1.5C11.3732 1.5 11.625 1.75184 11.625 2.0625V2.625H14.8125C15.3303 2.625 15.75 3.04473 15.75 3.5625V14.8125C15.75 15.3303 15.3303 15.75 14.8125 15.75H3.1875C2.66973 15.75 2.25 15.3303 2.25 14.8125V3.5625C2.25 3.04473 2.66973 2.625 3.1875 2.625H6.46875V2.0625C6.46875 1.75184 6.72059 1.5 7.03125 1.5ZM10.5 3.75V4.3125C10.5 4.62316 10.7518 4.875 11.0625 4.875C11.3732 4.875 11.625 4.62316 11.625 4.3125V3.75H14.625V6H3.375V3.75H6.46875V4.3125C6.46875 4.62316 6.72059 4.875 7.03125 4.875C7.34191 4.875 7.59375 4.62316 7.59375 4.3125V3.75H10.5ZM3.375 7.125V14.625H14.625V7.125H3.375Z" fill="#546E7A"/>
</svg>
