<svg width="50" height="50" viewBox="0 0 50 50" fill="none" xmlns="http://www.w3.org/2000/svg">
<path d="M13.8022 15.8854C13.8022 15.0224 14.5143 14.3229 15.3926 14.3229H41.8994C42.7777 14.3229 43.4898 15.0224 43.4898 15.8854C43.4898 16.7483 42.7777 17.4479 41.8994 17.4479H15.3926C14.5143 17.4479 13.8022 16.7483 13.8022 15.8854Z" fill="#F18018"/>
<path d="M6.5105 7.552C6.5105 6.68906 7.21005 5.9895 8.073 5.9895H11.7188C12.5818 5.9895 13.2813 6.68906 13.2813 7.552C13.2813 8.41495 12.5818 9.1145 11.7188 9.1145H8.073C7.21005 9.1145 6.5105 8.41495 6.5105 7.552Z" fill="#F18018"/>
<path d="M19.7917 29.6874C19.7917 28.8245 20.5125 28.1249 21.4016 28.1249H35.8902C36.7793 28.1249 37.5001 28.8245 37.5001 29.6874C37.5001 30.5504 36.7793 31.2499 35.8902 31.2499H21.4016C20.5125 31.2499 19.7917 30.5504 19.7917 29.6874Z" fill="#F18018"/>
<path d="M17.7085 33.8541C17.7085 32.9912 18.3747 32.2916 19.1966 32.2916H37.0537C37.8756 32.2916 38.5418 32.9912 38.5418 33.8541C38.5418 34.7171 37.8756 35.4166 37.0537 35.4166H19.1966C18.3747 35.4166 17.7085 34.7171 17.7085 33.8541Z" fill="#F18018"/>
<path d="M24.2188 40.3645C24.2188 42.0904 22.8196 43.4895 21.0938 43.4895C19.3679 43.4895 17.9688 42.0904 17.9688 40.3645C17.9688 38.6386 19.3679 37.2395 21.0938 37.2395C22.8196 37.2395 24.2188 38.6386 24.2188 40.3645Z" fill="#F18018"/>
<path d="M37.7605 40.6249C37.7605 42.3508 36.3614 43.7499 34.6355 43.7499C32.9096 43.7499 31.5105 42.3508 31.5105 40.6249C31.5105 38.899 32.9096 37.4999 34.6355 37.4999C36.3614 37.4999 37.7605 38.899 37.7605 40.6249Z" fill="#F18018"/>
<path d="M10.3327 8.30574C9.98377 7.52211 10.34 6.60231 11.1283 6.25131C11.9167 5.90032 12.8386 6.25105 13.1875 7.03469L22.8337 28.7004C23.1826 29.484 22.8263 30.4038 22.038 30.7548C21.2496 31.1058 20.3277 30.755 19.9788 29.9714L10.3327 8.30574Z" fill="#F18018"/>
<path d="M43.5827 16.7626C43.9341 15.9733 43.5799 15.049 42.7916 14.698C42.0032 14.347 41.0793 14.7023 40.7279 15.4916L34.7423 28.9354C34.3909 29.7247 34.7451 30.6491 35.5334 31.0001C36.3218 31.3511 37.2457 30.9958 37.5971 30.2065L43.5827 16.7626Z" fill="#F18018"/>
<path d="M22.956 29.4567C23.227 28.8478 22.8077 28.0698 22.0194 27.7188C21.231 27.3678 20.3722 27.5768 20.1012 28.1856L17.8504 33.2409C17.5793 33.8497 17.9987 34.6278 18.787 34.9788C19.5753 35.3298 20.4341 35.1208 20.7052 34.512L22.956 29.4567Z" fill="#F18018"/>
</svg>
