<svg width="20" height="20" viewBox="0 0 20 20" fill="none" xmlns="http://www.w3.org/2000/svg">
<path fill-rule="evenodd" clip-rule="evenodd" d="M9.95107 4.32294C13.8268 4.32294 17.1165 6.70034 18.2844 10C17.1165 13.2997 13.8268 15.6771 9.95107 15.6771C6.07536 15.6771 2.78568 13.2997 1.61774 10C2.78568 6.70034 6.07536 4.32294 9.95107 4.32294ZM12.0344 9.84377C12.0344 10.9944 11.1017 11.9271 9.95107 11.9271C8.80048 11.9271 7.86774 10.9944 7.86774 9.84377C7.86774 8.69318 8.80048 7.76044 9.95107 7.76044C11.1017 7.76044 12.0344 8.69318 12.0344 9.84377ZM13.2844 9.84377C13.2844 11.6847 11.792 13.1771 9.95107 13.1771C8.11012 13.1771 6.61774 11.6847 6.61774 9.84377C6.61774 8.00282 8.11012 6.51044 9.95107 6.51044C11.792 6.51044 13.2844 8.00282 13.2844 9.84377Z" fill="#546E7A"/>
<path fill-rule="evenodd" clip-rule="evenodd" d="M1.56865 9.98263C2.74422 6.66141 6.05411 4.27084 9.95108 4.27084C13.8481 4.27084 17.1579 6.66141 18.3335 9.98263L18.3397 10L18.3335 10.0174C17.1579 13.3386 13.8481 15.7292 9.95108 15.7292C6.05411 15.7292 2.74422 13.3386 1.56865 10.0174L1.5625 10L1.56865 9.98263ZM1.67302 10C2.83873 13.2691 6.10346 15.625 9.95108 15.625C13.7987 15.625 17.0634 13.2691 18.2291 10C17.0634 6.7309 13.7987 4.37501 9.95108 4.37501C6.10346 4.37501 2.83873 6.7309 1.67302 10ZM6.56567 9.84376C6.56567 7.97405 8.08137 6.45834 9.95108 6.45834C11.8208 6.45834 13.3365 7.97405 13.3365 9.84376C13.3365 11.7135 11.8208 13.2292 9.95108 13.2292C8.08137 13.2292 6.56567 11.7135 6.56567 9.84376ZM9.95108 6.56251C8.1389 6.56251 6.66983 8.03158 6.66983 9.84376C6.66983 11.6559 8.1389 13.125 9.95108 13.125C11.7633 13.125 13.2323 11.6559 13.2323 9.84376C13.2323 8.03158 11.7633 6.56251 9.95108 6.56251ZM7.81567 9.84376C7.81567 8.6644 8.77173 7.70834 9.95108 7.70834C11.1304 7.70834 12.0865 8.6644 12.0865 9.84376C12.0865 11.0231 11.1304 11.9792 9.95108 11.9792C8.77173 11.9792 7.81567 11.0231 7.81567 9.84376ZM9.95108 7.81251C8.82926 7.81251 7.91983 8.72193 7.91983 9.84376C7.91983 10.9656 8.82926 11.875 9.95108 11.875C11.0729 11.875 11.9823 10.9656 11.9823 9.84376C11.9823 8.72193 11.0729 7.81251 9.95108 7.81251Z" fill="#546E7A"/>
</svg>
