<svg width="56" height="56" viewBox="0 0 56 56" fill="none" xmlns="http://www.w3.org/2000/svg">
<path fill-rule="evenodd" clip-rule="evenodd" d="M47.8333 43.1667V12.8334H8.16658V43.1667H47.8333ZM48.4166 46.6667C50.0274 46.6667 51.3333 45.3609 51.3333 43.75V12.25C51.3333 10.6392 50.0274 9.33336 48.4166 9.33336H7.58325C5.97242 9.33336 4.66658 10.6392 4.66658 12.25V43.75C4.66658 45.3609 5.97242 46.6667 7.58325 46.6667H48.4166Z" fill="#F18018"/>
<path d="M22.1484 24.6641C22.1484 23.0964 22.6953 21.9024 23.7891 21.0821C24.8737 20.2618 26.5007 19.8516 28.6699 19.8516C29.7819 19.8516 30.7298 19.9291 31.5137 20.084C32.2975 20.2299 33.0312 20.4486 33.7148 20.7403V24.1856C32.9401 23.821 32.0697 23.5157 31.1035 23.2696C30.1283 23.0235 29.2715 22.9005 28.5332 22.9005C27.0202 22.9005 26.2637 23.338 26.2637 24.213C26.2637 24.5411 26.3639 24.8054 26.5645 25.0059C26.765 25.2156 27.1113 25.448 27.6035 25.7032C28.0957 25.9675 28.752 26.2728 29.5723 26.6192C30.748 27.1114 31.6139 27.5671 32.1699 27.9864C32.7168 28.4057 33.1178 28.8842 33.373 29.4219C33.6191 29.9688 33.7422 30.6387 33.7422 31.4317C33.7422 32.7898 33.2181 33.838 32.1699 34.5762C31.1126 35.3236 29.6178 35.6973 27.6855 35.6973C25.8444 35.6973 24.0534 35.2963 22.3125 34.4942L23.5703 31.4864C24.3359 31.8145 25.0514 32.0834 25.7168 32.293C26.3822 32.5027 27.0612 32.6075 27.7539 32.6075C28.9844 32.6075 29.5996 32.2748 29.5996 31.6094C29.5996 31.2357 29.4036 30.9122 29.0117 30.6387C28.6107 30.3653 27.7402 29.9597 26.4004 29.4219C25.2064 28.9389 24.3314 28.4877 23.7754 28.0684C23.2194 27.6491 22.8092 27.1661 22.5449 26.6192C22.2806 26.0723 22.1484 25.4206 22.1484 24.6641Z" fill="#F18018"/>
<path d="M28.875 37.3334H26.5417V34.125H28.875V37.3334Z" fill="#F18018"/>
<path d="M28.875 21.8751H26.5417V18.6667H28.875V21.8751Z" fill="#F18018"/>
<path fill-rule="evenodd" clip-rule="evenodd" d="M16.0059 38.7026C17.8101 41.2674 18.218 44.2355 18.0476 46.2322L14.5603 45.9346C14.676 44.5791 14.3801 42.4747 13.1432 40.7163C11.9674 39.0447 9.80721 37.4903 5.76471 37.332L5.90167 33.8347C10.9224 34.0313 14.1406 36.0509 16.0059 38.7026Z" fill="#F18018"/>
<path fill-rule="evenodd" clip-rule="evenodd" d="M16.0059 17.2975C17.8101 14.7327 18.218 11.7646 18.0476 9.76788L14.5603 10.0655C14.676 11.4209 14.3801 13.5254 13.1432 15.2838C11.9674 16.9554 9.80721 18.5097 5.76471 18.668L5.90167 22.1654C10.9224 21.9687 14.1406 19.9492 16.0059 17.2975Z" fill="#F18018"/>
<path fill-rule="evenodd" clip-rule="evenodd" d="M39.9938 38.7026C38.1897 41.2674 37.7817 44.2355 37.9521 46.2322L41.4395 45.9346C41.3238 44.5791 41.6196 42.4747 42.8565 40.7163C44.0324 39.0447 46.1925 37.4903 50.235 37.332L50.0981 33.8347C45.0774 34.0313 41.8591 36.0509 39.9938 38.7026Z" fill="#F18018"/>
<path fill-rule="evenodd" clip-rule="evenodd" d="M39.9938 17.2975C38.1897 14.7327 37.7817 11.7646 37.9521 9.76788L41.4395 10.0655C41.3238 11.4209 41.6196 13.5254 42.8565 15.2838C44.0324 16.9554 46.1925 18.5097 50.235 18.668L50.0981 22.1654C45.0774 21.9687 41.8591 19.9492 39.9938 17.2975Z" fill="#F18018"/>
</svg>
