<svg width="50" height="51" viewBox="0 0 50 51" fill="none" xmlns="http://www.w3.org/2000/svg">
<path fill-rule="evenodd" clip-rule="evenodd" d="M15.988 7.02488C16.4338 6.2718 17.3942 6.02966 18.133 6.48404L24.7717 10.5666C24.8279 10.6012 24.8812 10.6388 24.9316 10.6791C24.9922 10.7052 25.0518 10.7355 25.1102 10.7701C25.8562 11.2121 26.1094 12.1869 25.6758 12.9473L21.8756 19.6103C21.4419 20.3707 20.4856 20.6288 19.7395 20.1868C18.9935 19.7448 18.7402 18.77 19.1739 18.0096L21.3424 14.2075C14.9267 15.7678 10.1562 21.649 10.1562 28.6659C10.1562 36.8749 16.6854 43.5297 24.7396 43.5297C32.7937 43.5297 39.3229 36.8749 39.3229 28.6659C39.3229 24.0855 37.2902 19.9891 34.0941 17.2625L34.0898 17.268L32.9977 16.3618C32.3284 15.8065 32.2285 14.8028 32.7745 14.12C33.3205 13.4372 34.3057 13.3339 34.9749 13.8892L35.78 14.5572L35.7821 14.5551C39.8449 17.8623 42.4479 22.9543 42.4479 28.6659C42.4479 38.634 34.5196 46.7148 24.7396 46.7148C14.9595 46.7148 7.03125 38.634 7.03125 28.6659C7.03125 20.4044 12.4771 13.4393 19.9096 11.2965L16.5186 9.21118C15.7798 8.7568 15.5422 7.77796 15.988 7.02488Z" fill="#F18018"/>
</svg>
